#tb 0: 1/15
0,          0,          0,        1,    86400, 0x98f5e422
0,          1,          1,        1,    86400, 0x1864cb06
0,          2,          2,        1,    86400, 0xb09532ef
0,          3,          3,        1,    86400, 0x3cd3dcdc
0,          4,          4,        1,    86400, 0xe738847f
0,          5,          5,        1,    86400, 0xc9b13afb
0,          6,          6,        1,    86400, 0x5005d035
0,          7,          7,        1,    86400, 0x22f63e17
0,          8,          8,        1,    86400, 0x93391f02
0,          9,          9,        1,    86400, 0x264830fd
0,         10,         10,        1,    86400, 0x8fff9f5f
0,         11,         11,        1,    86400, 0x524997fe
0,         12,         12,        1,    86400, 0x54e330f9
0,         13,         13,        1,    86400, 0x1d766a22
0,         14,         14,        1,    86400, 0x683a70ac
0,         15,         15,        1,    86400, 0x553b7b3d
0,         16,         16,        1,    86400, 0x822c79bc
0,         17,         17,        1,    86400, 0xe1087a1c
0,         18,         18,        1,    86400, 0xff397595
0,         19,         19,        1,    86400, 0x1b6b7717
0,         20,         20,        1,    86400, 0x6c5275c1
0,         21,         21,        1,    86400, 0x4e6a7189
0,         22,         22,        1,    86400, 0x285c6eba
0,         23,         23,        1,    86400, 0xce647227
0,         24,         24,        1,    86400, 0xa0d07b1c
0,         25,         25,        1,    86400, 0x5b567861
0,         26,         26,        1,    86400, 0x105873ec
0,         27,         27,        1,    86400, 0x59267fa0
0,         28,         28,        1,    86400, 0xaeac839f
0,         29,         29,        1,    86400, 0x2faf7402
0,         30,         30,        1,    86400, 0xc8547a30
0,         31,         31,        1,    86400, 0x3d357d49
0,         32,         32,        1,    86400, 0x75db6d6c
0,         33,         33,        1,    86400, 0x9fbf68e9
0,         34,         34,        1,    86400, 0x56a64d26
0,         35,         35,        1,    86400, 0xce9e1f43
0,         36,         36,        1,    86400, 0xa4d7fddc
0,         37,         37,        1,    86400, 0x3e20d77c
0,         38,         38,        1,    86400, 0x4680661d
0,         39,         39,        1,    86400, 0xf1b20af3
0,         40,         40,        1,    86400, 0xb79d8045
0,         41,         41,        1,    86400, 0x9479fc8a
0,         42,         42,        1,    86400, 0x232965c3
0,         43,         43,        1,    86400, 0xd18bca17
0,         44,         44,        1,    86400, 0xb9064249
0,         45,         45,        1,    86400, 0xcc48ab34
0,         46,         46,        1,    86400, 0xe25018cd
0,         47,         47,        1,    86400, 0x8da489ee
0,         48,         48,        1,    86400, 0x90de0fc1
0,         49,         49,        1,    86400, 0x2428dcee
0,         50,         50,        1,    86400, 0x4316e1ae
0,         51,         51,        1,    86400, 0x2b25e54c
0,         52,         52,        1,    86400, 0x736ce020
0,         53,         53,        1,    86400, 0x9a6be09a
0,         54,         54,        1,    86400, 0x23bddbcd
0,         55,         55,        1,    86400, 0x9368e465
0,         56,         56,        1,    86400, 0x1ae9bb87
0,         57,         57,        1,    86400, 0x4e591f32
0,         58,         58,        1,    86400, 0xba1bf9dc
0,         59,         59,        1,    86400, 0x07f0aa60
0,         60,         60,        1,    86400, 0xf5a2cfa2
0,         61,         61,        1,    86400, 0xcba5fc18
0,         62,         62,        1,    86400, 0x858c0cfe
0,         63,         63,        1,    86400, 0xac73ecd4
0,         64,         64,        1,    86400, 0xf41bf03c
0,         65,         65,        1,    86400, 0x928ed146
0,         66,         66,        1,    86400, 0x9ff5990a
0,         67,         67,        1,    86400, 0xc2fabc3d
0,         68,         68,        1,    86400, 0x94af87a3
0,         69,         69,        1,    86400, 0x9bae514c
0,         70,         70,        1,    86400, 0xe0da267a
0,         71,         71,        1,    86400, 0x1d40f55c
0,         72,         72,        1,    86400, 0xe6173b68
0,         73,         73,        1,    86400, 0x1445490d
0,         74,         74,        1,    86400, 0x8d8753c1
0,         75,         75,        1,    86400, 0xe5a7779d
0,         76,         76,        1,    86400, 0x3cfc66ef
0,         77,         77,        1,    86400, 0xa5d45608
0,         78,         78,        1,    86400, 0x62f17be1
0,         79,         79,        1,    86400, 0xa64c84d3
0,         80,         80,        1,    86400, 0xf98162f0
0,         81,         81,        1,    86400, 0x0db77d9f
0,         82,         82,        1,    86400, 0x0f0cbac9
0,         83,         83,        1,    86400, 0xb9934e97
0,         84,         84,        1,    86400, 0x7f8fa248
0,         85,         85,        1,    86400, 0xdfd96768
0,         86,         86,        1,    86400, 0x81b07919
0,         87,         87,        1,    86400, 0x66c11e9f
0,         88,         88,        1,    86400, 0xd86eb114
0,         89,         89,        1,    86400, 0x67f20c1f
0,         90,         90,        1,    86400, 0x66915de5
0,         91,         91,        1,    86400, 0x2b8aa76f
0,         92,         92,        1,    86400, 0x85b5a3d2
0,         93,         93,        1,    86400, 0x80d29ed6
0,         94,         94,        1,    86400, 0x4d508e2c
0,         95,         95,        1,    86400, 0x0d407374
0,         96,         96,        1,    86400, 0xd4068016
0,         97,         97,        1,    86400, 0x6ffab98f
0,         98,         98,        1,    86400, 0x2360903d
0,         99,         99,        1,    86400, 0x470e04a0
